<svg width="11" height="14" viewBox="0 0 11 14" fill="none" xmlns="http://www.w3.org/2000/svg">
<path d="M10.6388 7.37499L1.09969 13.7344C1.03193 13.7795 0.953195 13.8053 0.871895 13.8093C0.790583 13.8131 0.709751 13.7949 0.637991 13.7565C0.566231 13.7181 0.506231 13.6608 0.464399 13.5911C0.422555 13.5213 0.400439 13.4413 0.400391 13.36V0.641176C0.400439 0.55978 0.422555 0.47992 0.464399 0.410092C0.506231 0.340276 0.566231 0.283108 0.637991 0.244684C0.709751 0.206272 0.790583 0.188032 0.871895 0.19192C0.953195 0.195808 1.03193 0.22168 1.09969 0.266776L10.6388 6.62618C10.7005 6.66728 10.751 6.72294 10.7859 6.78826C10.8208 6.85358 10.8392 6.9265 10.8392 7.00058C10.8392 7.07463 10.8208 7.14759 10.7859 7.21287C10.751 7.27815 10.7005 7.33383 10.6388 7.37499Z" fill="#0F0F10"/>
</svg>
